# xmcd CD database file
#
# Track frame offsets:
#	150
#	7865
#	28765
#	51035
#	75345
#	97327
#	117752
#	146537
#	173400
#	196742
#	200985
#	226850
#	251477
#
# Disc length: 3472 seconds
#
# Revision: 0
# Processed by: cddbd v1.4PL0 Copyright (c) Steve Scherf et al.
# Submitted via: CDex 1.50Beta6
#
DISCID=9e0d8e0d
DTITLE=Makoto Kuriya - TV JAZZ ANTHOLOGY
DYEAR=2002
DGENRE=Jazz
TTITLE0=AstroBoy - Piano version
TTITLE1=11PM Opening Theme
TTITLE2=Mission Impossible
TTITLE3=Lonely Man
TTITLE4=Tetsujin 28 go
TTITLE5=PLAYGIRL OPENING THEME '69
TTITLE6=Sasuke Opening Theme
TTITLE7=Kizudarake no Tenshi
TTITLE8=G men '75 Theme
TTITLE9=11PM Theme - m.k.ol' school mix
TTITLE10=Ookami shonen KEN theme
TTITLE11=AstroBoy - Vocal version
TTITLE12=AstroBoy - Piano version 2
EXTD=YEAR: 2002
EXTT0=
EXTT1=
EXTT2=
EXTT3=
EXTT4=
EXTT5=
EXTT6=
EXTT7=
EXTT8=
EXTT9=
EXTT10=
EXTT11=
EXTT12=
PLAYORDER=
